<?xml version="1.0" encoding="UTF-8" standalone="no"?>
<!-- Created with Inkscape (http://www.inkscape.org/) -->

<svg
   width="67.733337mm"
   height="67.73333mm"
   viewBox="0 0 67.733337 67.73333"
   version="1.1"
   id="svg5"
   xml:space="preserve"
   inkscape:version="1.2.2 (732a01da63, 2022-12-09)"
   sodipodi:docname="neuropilot.svg"
   inkscape:export-filename="evilpilot.png"
   inkscape:export-xdpi="48"
   inkscape:export-ydpi="48"
   xmlns:inkscape="http://www.inkscape.org/namespaces/inkscape"
   xmlns:sodipodi="http://sodipodi.sourceforge.net/DTD/sodipodi-0.dtd"
   xmlns="http://www.w3.org/2000/svg"
   xmlns:svg="http://www.w3.org/2000/svg"><sodipodi:namedview
     id="namedview7"
     pagecolor="#373737"
     bordercolor="#000000"
     borderopacity="0.25"
     inkscape:showpageshadow="2"
     inkscape:pageopacity="0"
     inkscape:pagecheckerboard="0"
     inkscape:deskcolor="#d1d1d1"
     inkscape:document-units="mm"
     showgrid="false"
     inkscape:zoom="1.6076165"
     inkscape:cx="406.81345"
     inkscape:cy="652.2078"
     inkscape:window-width="1920"
     inkscape:window-height="991"
     inkscape:window-x="-9"
     inkscape:window-y="-9"
     inkscape:window-maximized="1"
     inkscape:current-layer="layer2" /><defs
     id="defs2"><inkscape:path-effect
       effect="powerstroke"
       id="path-effect1788"
       is_visible="true"
       lpeversion="1"
       offset_points="0.40598048,0.69342511 | 1.6870878,0.88872373 | 0.741452,1.1753925 | 2.1914267,0.57191477"
       not_jump="false"
       sort_points="true"
       interpolator_type="CentripetalCatmullRom"
       interpolator_beta="0.19650655"
       start_linecap_type="zerowidth"
       linejoin_type="round"
       miter_limit="4"
       scale_width="1"
       end_linecap_type="zerowidth" /><inkscape:path-effect
       effect="mirror_symmetry"
       start_point="105,0"
       end_point="105,297"
       center_point="105,148.5"
       id="path-effect1782"
       is_visible="true"
       lpeversion="1.2"
       lpesatellites=""
       mode="vertical"
       discard_orig_path="false"
       fuse_paths="false"
       oposite_fuse="false"
       split_items="false"
       split_open="false"
       link_styles="false" /><inkscape:path-effect
       effect="mirror_symmetry"
       start_point="105.00001,140.11455"
       end_point="105.00001,146.92351"
       center_point="105.00001,143.51903"
       id="path-effect12788"
       is_visible="true"
       lpeversion="1.2"
       lpesatellites=""
       mode="free"
       discard_orig_path="false"
       fuse_paths="false"
       oposite_fuse="false"
       split_items="false"
       split_open="false"
       link_styles="false" /><inkscape:path-effect
       effect="mirror_symmetry"
       start_point="105,0"
       end_point="105,297"
       center_point="105,148.5"
       id="path-effect12693"
       is_visible="true"
       lpeversion="1.2"
       lpesatellites=""
       mode="vertical"
       discard_orig_path="false"
       fuse_paths="false"
       oposite_fuse="false"
       split_items="false"
       split_open="false"
       link_styles="false" /><inkscape:path-effect
       effect="mirror_symmetry"
       start_point="105,0"
       end_point="105,297"
       center_point="105,148.5"
       id="path-effect1186"
       is_visible="true"
       lpeversion="1.2"
       lpesatellites=""
       mode="vertical"
       discard_orig_path="false"
       fuse_paths="false"
       oposite_fuse="false"
       split_items="false"
       split_open="false"
       link_styles="false" /><inkscape:path-effect
       effect="mirror_symmetry"
       start_point="105,0"
       end_point="105,297"
       center_point="105,148.5"
       id="path-effect460"
       is_visible="true"
       lpeversion="1.2"
       lpesatellites=""
       mode="vertical"
       discard_orig_path="false"
       fuse_paths="false"
       oposite_fuse="false"
       split_items="false"
       split_open="false"
       link_styles="false" /><inkscape:path-effect
       effect="mirror_symmetry"
       start_point="105,-41.253954"
       end_point="105,340.47527"
       center_point="105,149.61066"
       id="path-effect1877"
       is_visible="true"
       lpeversion="1.2"
       lpesatellites=""
       mode="vertical"
       discard_orig_path="false"
       fuse_paths="false"
       oposite_fuse="true"
       split_items="false"
       split_open="false"
       link_styles="false" /><inkscape:path-effect
       effect="mirror_symmetry"
       start_point="105,146.05119"
       end_point="105,150.94882"
       center_point="105,148.5"
       id="path-effect1873"
       is_visible="true"
       lpeversion="1.2"
       lpesatellites=""
       mode="free"
       discard_orig_path="false"
       fuse_paths="false"
       oposite_fuse="false"
       split_items="false"
       split_open="false"
       link_styles="false" /><inkscape:path-effect
       effect="mirror_symmetry"
       start_point="105,140.31719"
       end_point="105,156.68281"
       center_point="105,148.5"
       id="path-effect1815"
       is_visible="true"
       lpeversion="1.2"
       lpesatellites=""
       mode="free"
       discard_orig_path="false"
       fuse_paths="false"
       oposite_fuse="false"
       split_items="false"
       split_open="false"
       link_styles="false" /></defs><g
     inkscape:groupmode="layer"
     id="layer2"
     inkscape:label="Layer 2"
     style="display:inline"
     transform="translate(-71.133333,-114.63334)"><path
       style="display:inline;fill:#fffdfd;fill-opacity:1;stroke:none;stroke-width:3.175;stroke-linecap:round;stroke-linejoin:round"
       id="path361"
       sodipodi:type="arc"
       sodipodi:cx="105"
       sodipodi:cy="148.5"
       sodipodi:rx="33.866665"
       sodipodi:ry="33.866665"
       sodipodi:start="0"
       sodipodi:end="6.2785"
       sodipodi:arc-type="arc"
       d="m 138.86666,148.5 a 33.866665,33.866665 0 0 1 -33.82699,33.86664 33.866665,33.866665 0 0 1 -33.906242,-33.7873 33.866665,33.866665 0 0 1 33.747562,-33.9458 33.866665,33.866665 0 0 1 33.9853,33.70778"
       inkscape:label="Circle"
       sodipodi:open="true" /><path
       style="display:inline;opacity:1;fill:#2f242e;fill-opacity:1;stroke:#2f242e;stroke-width:3.175;stroke-linecap:round;stroke-linejoin:round;stroke-dasharray:none;stroke-opacity:1"
       d="m 96.277601,137.51644 -9.323371,13.18029 -3e-6,4.37901 c 3.601474,-2.76693 10.544474,-5.39449 13.967963,-14.43769 -0.55137,6.65862 2.30346,12.53023 5.51204,15.46599 -1.43423,-5.30019 -0.22222,-11.65793 0.59548,-15.96629 1.95629,10.38002 9.82235,13.05674 16.01606,14.26845 l 3e-5,-4.29505 -12.72396,-12.86799"
       id="path1933"
       sodipodi:nodetypes="ccccccccc"
       inkscape:label="Hair" /><path
       style="opacity:1;fill:none;fill-opacity:1;stroke:#2f242e;stroke-width:3.175;stroke-linecap:round;stroke-linejoin:round;stroke-opacity:1"
       d="m 109.90299,153.65523 v 4.89763 m -9.80598,-4.89763 v 4.89763"
       id="path1871"
       sodipodi:nodetypes="cc"
       inkscape:path-effect="#path-effect1873"
       inkscape:original-d="m 109.90299,153.65523 v 4.89763"
       class="UnoptimicedTransforms"
       inkscape:label="Eyes" /><path
       style="display:inline;opacity:1;fill:#2f242e;fill-opacity:1;stroke:none;stroke-width:0.275;stroke-linecap:round;stroke-linejoin:round;stroke-dasharray:none;stroke-opacity:1"
       d="m 105,127.33859 c 9.78403,0.1215 17.11229,10.61659 18.0458,20.16914 -2.61814,-1.61955 -6.28555,-5.20255 -8.50367,-5.42306 -2.21812,-0.22051 -4.31743,-1.92791 -5.64477,-1.38533 C 107.57002,141.24192 105,139.86031 105,139.86031 m 0,-12.52172 c -9.784027,0.1215 -17.112287,10.61659 -18.045797,20.16914 2.61814,-1.61955 6.28555,-5.20255 8.50367,-5.42306 2.21812,-0.22051 4.31743,-1.92791 5.644767,-1.38533 1.32734,0.54258 3.89736,-0.83903 3.89736,-0.83903"
       id="path1875"
       inkscape:path-effect="#path-effect1877"
       inkscape:original-d="m 105,127.33859 c 9.78403,0.1215 17.11229,10.61659 18.0458,20.16914 -2.61814,-1.61955 -6.28555,-5.20255 -8.50367,-5.42306 -2.21812,-0.22051 -4.31743,-1.92791 -5.64477,-1.38533 C 107.57002,141.24192 105,139.86031 105,139.86031"
       class="UnoptimicedTransforms"
       sodipodi:nodetypes="cczzc"
       inkscape:label="Top"
       transform="matrix(1,0,0,0.77803841,0,32.097161)" /><path
       style="display:inline;opacity:1;fill:#2f242e;fill-opacity:1;fill-rule:nonzero;stroke:none;stroke-width:3.175;stroke-linecap:round;stroke-linejoin:round;stroke-dasharray:none;stroke-opacity:1"
       d="m 105.19785,131.17148 c 0.20264,0.0165 0.77546,0.0706 1.34842,0.056 0.32412,-0.008 0.6271,-0.0368 0.9022,-0.0891 0.19495,-0.037 0.38515,-0.0767 0.56357,-0.12679 0.24279,-0.0682 0.50271,-0.16613 0.75344,-0.33588 0.19421,-0.13149 0.40818,-0.32355 0.58965,-0.60172 0.0118,-0.018 0.0234,-0.0365 0.0349,-0.0554 0.14991,-0.24556 0.27492,-0.55841 0.32961,-0.93362 0.0471,-0.32288 0.0392,-0.67174 -0.0322,-1.04317 -0.10021,-0.49518 -0.31915,-0.9512 -0.61969,-1.35336 -0.29855,-0.39949 -0.66123,-0.72487 -1.03026,-0.98724 -0.31519,-0.22408 -0.63258,-0.40064 -0.91878,-0.54119 -0.59667,-0.29301 -1.18552,-0.45786 -1.71503,-0.55285 -0.33778,-0.0613 -0.71236,-0.10087 -1.11637,-0.1125 -0.51399,-0.0148 -1.11593,0.023 -1.73571,0.15128 -0.46134,0.0955 -0.87117,0.22865 -1.21582,0.38445 -0.48015,0.21706 -0.74861,0.43891 -0.88866,0.57406 0.18172,-0.0734 0.49883,-0.17553 0.98515,-0.22871 0.34909,-0.0382 0.74578,-0.0465 1.17157,-0.016 0.57626,0.0413 1.09285,0.14514 1.51958,0.267 0.33392,0.0954 0.62254,0.20924 0.86855,0.32659 0.3948,0.18675 0.82836,0.43983 1.21626,0.73328 0.19032,0.14398 0.3801,0.31492 0.54876,0.50658 0.19967,0.2269 0.34778,0.4577 0.44303,0.6803 0.094,0.21962 0.12536,0.40409 0.13346,0.55908 0.0146,0.14508 0.005,0.24525 -0.004,0.30823 -0.0106,0.0778 -0.0206,0.12543 -0.0289,0.18077 -6.4e-4,0.004 -0.001,0.009 -0.002,0.0129 -0.0103,0.0702 -0.0218,0.14329 -0.0478,0.23759 -0.0319,0.11555 -0.0835,0.25354 -0.16564,0.39521 -0.0601,0.10367 -0.1391,0.21388 -0.24603,0.32508 -0.15329,0.15941 -0.33714,0.32487 -0.57623,0.51267 -0.329,0.25843 -0.98911,0.71304 -1.0654,0.76641 z"
       id="path1784"
       sodipodi:nodetypes="cssc"
       inkscape:path-effect="#path-effect1788"
       inkscape:original-d="m 105.19785,131.17148 c 1.52475,-0.41301 3.64017,-0.96095 3.31263,-2.93427 -0.22271,-1.34178 -1.64167,-2.44588 -3.31263,-2.95694 -1.67095,-0.51107 -3.73244,-0.33675 -4.75071,0.32423"
       inkscape:label="Evil-Ahoge" /><path
       style="fill:none;stroke:#2f242e;stroke-width:3.175;stroke-linecap:round;stroke-linejoin:round"
       d="m 118.91135,146.19433 4.13442,0.66951 v 15.08472 c -3.63014,2.10202 -10.16946,5.00769 -18.04577,5.00769 m -13.911347,-20.76192 -4.13442,0.66951 v 15.08472 c 3.63014,2.10202 10.16946,5.00769 18.045767,5.00769"
       id="path458"
       sodipodi:nodetypes="cccc"
       inkscape:path-effect="#path-effect460"
       inkscape:original-d="m 118.91135,146.19433 4.13442,0.66951 v 15.08472 c -3.63014,2.10202 -10.16946,5.00769 -18.04577,5.00769"
       class="UnoptimicedTransforms"
       inkscape:label="Face" /><path
       style="display:inline;fill:#2f242e;fill-opacity:1;stroke:#2f242e;stroke-width:3.175;stroke-linecap:round;stroke-linejoin:round;stroke-opacity:1"
       d="m 123.04577,161.94856 c 1.91012,-1.27676 3.32461,-2.57205 4.98897,-4.25735 l -0.0178,-5.89772 c -0.95114,-2.49031 -2.76885,-3.94072 -4.97114,-4.92965 m -36.091567,15.08472 c -1.91012,-1.27676 -3.32461,-2.57205 -4.98897,-4.25735 l 0.0178,-5.89772 c 0.95114,-2.49031 2.76885,-3.94072 4.97114,-4.92965"
       id="path1184"
       inkscape:path-effect="#path-effect1186"
       inkscape:original-d="m 123.04577,161.94856 c 1.91012,-1.27676 3.32461,-2.57205 4.98897,-4.25735 l -0.0178,-5.89772 c -0.95114,-2.49031 -2.76885,-3.94072 -4.97114,-4.92965"
       class="UnoptimicedTransforms"
       sodipodi:nodetypes="cccc"
       inkscape:label="Side" /><path
       style="display:inline;opacity:1;fill:#2f242e;fill-opacity:1;stroke:#2f242e;stroke-width:3.175;stroke-linecap:round;stroke-linejoin:round;stroke-dasharray:none;stroke-opacity:1"
       d="m 116.97422,148.09402 c 0,0 0.73872,8.7853 -0.2448,13.00963 -0.97317,4.17992 -3.50721,8.17819 -3.50721,8.17819 2.10107,-0.80154 4.8598,-2.19331 6.63347,-4.9125 3.35567,-5.14454 1.31196,-15.72356 1.31196,-15.72356 m -28.141857,-0.55176 c 0,0 -0.73872,8.7853 0.2448,13.00963 0.97317,4.17992 3.50721,8.17819 3.50721,8.17819 -2.10107,-0.80154 -4.8598,-2.19331 -6.63347,-4.9125 -3.35567,-5.14454 -1.31196,-15.72356 -1.31196,-15.72356"
       id="path12690"
       sodipodi:nodetypes="cscsc"
       inkscape:path-effect="#path-effect12693"
       inkscape:original-d="m 116.97422,148.09402 c 0,0 0.73872,8.7853 -0.2448,13.00963 -0.97317,4.17992 -3.50721,8.17819 -3.50721,8.17819 2.10107,-0.80154 4.8598,-2.19331 6.63347,-4.9125 3.35567,-5.14454 1.31196,-15.72356 1.31196,-15.72356"
       class="UnoptimicedTransforms"
       inkscape:label="Bangs" /><path
       style="display:inline;fill:#ffffff;fill-opacity:1;stroke:#2f242e;stroke-width:3.175;stroke-linecap:round;stroke-linejoin:round;stroke-opacity:1"
       d="m 106.73157,133.35449 c 1.58834,-1.46296 4.24927,-1.22949 6.39809,-1.01587 2.28742,0.2274 4.87881,0.73697 6.46456,2.40111 1.40367,1.47307 1.77579,3.7846 1.84701,5.8181 0.0687,1.96244 -0.0954,4.24516 -1.38526,5.72575 -1.32552,1.5215 -3.61762,2.12364 -5.6334,2.21641 -2.31371,0.10648 -4.37538,0.20948 -6.67234,-1.93935 -1.56037,-1.45975 -2.36994,-3.73876 -2.58861,-5.86428 -0.25611,-2.48948 -0.50007,-5.43525 1.56995,-7.34187 z m -3.46314,0 c -1.58834,-1.46296 -4.24927,-1.22949 -6.39809,-1.01587 -2.28742,0.2274 -4.87881,0.73697 -6.46456,2.40111 -1.40367,1.47307 -1.77579,3.7846 -1.84701,5.8181 -0.0687,1.96244 0.0954,4.24516 1.38526,5.72575 1.32552,1.5215 3.61762,2.12364 5.6334,2.21641 2.31371,0.10648 4.37538,0.20948 6.67234,-1.93935 1.56037,-1.45975 2.36994,-3.73876 2.58861,-5.86428 0.25611,-2.48948 0.50007,-5.43525 -1.56995,-7.34187 z"
       id="path1486"
       sodipodi:nodetypes="saaaaasas"
       inkscape:label="Aviators"
       inkscape:original-d="m 106.73157,133.35449 c 1.58834,-1.46296 4.24927,-1.22949 6.39809,-1.01587 2.28742,0.2274 4.87881,0.73697 6.46456,2.40111 1.40367,1.47307 1.77579,3.7846 1.84701,5.8181 0.0687,1.96244 -0.0954,4.24516 -1.38526,5.72575 -1.32552,1.5215 -3.61762,2.12364 -5.6334,2.21641 -2.31371,0.10648 -4.37538,0.20948 -6.67234,-1.93935 -1.56037,-1.45975 -2.36994,-3.73876 -2.58861,-5.86428 -0.25611,-2.48948 -0.50007,-5.43525 1.56995,-7.34187 z"
       inkscape:path-effect="#path-effect1815"
       class="UnoptimicedTransforms"
       transform="matrix(0.88221985,0,0,0.88221985,12.366916,17.088643)" /><path
       style="display:inline;opacity:1;fill:none;fill-opacity:1;stroke:#ffffff;stroke-width:1.58734;stroke-linecap:round;stroke-linejoin:round;stroke-dasharray:none;stroke-opacity:1"
       d="m 105,141.91568 c 0.49358,-0.63816 1.13775,-1.02824 1.88782,-1.02824 0.75006,0 1.75875,0.56728 1.85405,1.63912 0.18064,2.03176 -3.74186,4.66045 -3.74186,4.66045 m 1e-5,-5.27133 c -0.49358,-0.63816 -1.13775,-1.02824 -1.88782,-1.02824 -0.75006,0 -1.75875,0.56728 -1.85405,1.63912 -0.18064,2.03176 3.74186,4.66045 3.74186,4.66045"
       id="path12784"
       sodipodi:nodetypes="czsc"
       inkscape:path-effect="#path-effect12788"
       inkscape:original-d="m 105,141.91568 c 0.49358,-0.63816 1.13775,-1.02824 1.88782,-1.02824 0.75006,0 1.75875,0.56728 1.85405,1.63912 0.18064,2.03176 -3.74186,4.66045 -3.74186,4.66045"
       class="UnoptimicedTransforms"
       transform="matrix(0.89103438,-0.33672629,0.33672629,0.89103438,-23.834233,57.309548)"
       inkscape:label="Heart 2" /><path
       style="fill:#000000;stroke:#ffffff;stroke-width:1.512;stroke-linecap:round;stroke-linejoin:round;stroke-dasharray:none;stroke-opacity:1"
       d="m 117.51112,148.40504 -0.008,2.09216 1.60163,-0.84296 0.18088,3.44773"
       id="path320"
       inkscape:label="Evil-Heartbreak"
       sodipodi:nodetypes="cccc" /><path
       style="fill:#ffffff;fill-opacity:1;stroke:none;stroke-width:1.512;stroke-linecap:round;stroke-linejoin:round;stroke-dasharray:none;stroke-opacity:1"
       d="m 108.10923,154.41825 4.01166,-1.31666 -1.29608,-1.4195 -1.89268,0.12343 -0.71152,0.74973 z m -6.21846,0 -4.011657,-1.31666 1.29608,-1.4195 1.892677,0.12343 0.71152,0.74973 z"
       id="path1132"
       inkscape:path-effect="#path-effect1782"
       inkscape:original-d="m 108.10923,154.41825 4.01166,-1.31666 -1.29608,-1.4195 -1.89268,0.12343 -0.71152,0.74973 z"
       class="UnoptimicedTransforms"
       sodipodi:nodetypes="cccccc"
       inkscape:label="Evil-Angry" /></g></svg>
