<?xml version="1.0" encoding="UTF-8" standalone="no"?>
<!-- Uploaded to: SVG Repo, www.svgrepo.com, Generator: SVG Repo Mixer Tools -->

<svg
   fill="#000000"
   width="9.9903412"
   height="7.3645401"
   viewBox="0 0 0.39961364 0.2945816"
   version="1.1"
   id="svg1"
   xmlns:xlink="http://www.w3.org/1999/xlink"
   xmlns="http://www.w3.org/2000/svg"
   xmlns:svg="http://www.w3.org/2000/svg"
   xmlns:rdf="http://www.w3.org/1999/02/22-rdf-syntax-ns#"
   xmlns:cc="http://creativecommons.org/ns#"
   xmlns:dc="http://purl.org/dc/elements/1.1/">
  <defs
     id="defs1">
    <linearGradient
       id="linearGradient1">
      <stop
         style="stop-color:#d200df;stop-opacity:1;"
         offset="0.0895128"
         id="stop1" />
      <stop
         style="stop-color:#0000df;stop-opacity:0;"
         offset="0.73155135"
         id="stop2" />
    </linearGradient>
    <linearGradient
       xlink:href="#linearGradient1"
       id="linearGradient2"
       x1="1.0082482"
       y1="1.1415503"
       x2="0.42535469"
       y2="0.30659461"
       gradientUnits="userSpaceOnUse"
       gradientTransform="translate(-0.47425133,-0.52746558)" />
  </defs>
  <title
     id="title1">file</title>
  <path
     d="m -0.17685324,0.59364562 q 0,0.026345 0.0182392,0.044579 0.0182353,0.018238 0.0455912,0.018238 h 0.63323496 q 0.025329,0 0.044579,-0.018239 0.019251,-0.018239 0.018239,-0.044579 V -0.10341972 L 0.32973496,-0.35671381 h -0.44275789 q -0.0263402,0 -0.0455907,0.0192506 -0.0192506,0.0192506 -0.0182392,0.044579 z m 0.12664728,-0.06383 V -0.2300666 h 0.31712394 v 0.19047712 h 0.18946427 v 0.5694051 z"
     id="path1"
     style="fill:url(#linearGradient2);fill-opacity:1;stroke:#d200df;stroke-width:0.0316617;stroke-opacity:1" />
  <metadata
     id="metadata1">
    <rdf:RDF>
      <cc:Work
         rdf:about="">
        <dc:title>file</dc:title>
      </cc:Work>
    </rdf:RDF>
  </metadata>
  <g
     id="g7040"
     transform="matrix(0.01220328,0,0,0.01220328,-1.2661062,-1.9866435)"
     style="stroke:#bb00df;stroke-opacity:1">
    <path
       style="fill:none;fill-opacity:1;stroke:#bb00df;stroke-width:3.60798;stroke-linecap:round;stroke-linejoin:round;stroke-dasharray:none;stroke-opacity:1"
       d="m 105.55529,174.80602 h 5.18879"
       id="path7028" />
    <path
       style="display:inline;fill:none;fill-opacity:0;stroke:#bb00df;stroke-width:3.175;stroke-linecap:round;stroke-linejoin:round;stroke-dasharray:none;stroke-opacity:1"
       d="m 134.64739,166.13898 c 0,0 -1.1816,-1.70236 -3.95274,-1.75466 -3.27441,-0.0618 -4.88593,2.51297 -7.72963,5.48112 -3.57225,-2.74674 -4.21331,-3.90714 -7.36938,-3.91114 -3.67463,-0.004 -5.14047,3.33362 -5.15237,5.23405 -0.0124,1.98316 0.75549,4.37141 2.52369,5.73531 3.64052,2.80809 7.28104,5.61619 10.92156,8.42429 l 2.632,-2.2626"
       id="path7030" />
    <path
       style="fill:none;fill-opacity:1;stroke:#bb00df;stroke-width:2.64583;stroke-linecap:round;stroke-linejoin:round;stroke-dasharray:none;stroke-opacity:1"
       d="M 121.93083,176.18874 H 135.1748"
       id="path7034" />
    <path
       style="fill:none;fill-opacity:1;stroke:#bb00df;stroke-width:2.64583;stroke-linecap:round;stroke-linejoin:round;stroke-dasharray:none;stroke-opacity:1"
       d="m 127.9566,169.86544 h 7.2182"
       id="path7036" />
    <path
       style="fill:none;fill-opacity:1;stroke:#bb00df;stroke-width:2.64583;stroke-linecap:round;stroke-linejoin:round;stroke-dasharray:none;stroke-opacity:1"
       d="m 130.46264,182.31614 h 4.71216"
       id="path7038" />
  </g>
</svg>
