<?xml version="1.0" encoding="UTF-8" standalone="no"?>
<!-- Uploaded to: SVG Repo, www.svgrepo.com, Generator: SVG Repo Mixer Tools -->

<svg
   width="33.867001"
   height="33.867001"
   viewBox="0 0 1.01601 1.01601"
   fill="none"
   version="1.1"
   id="svg3"
   xmlns="http://www.w3.org/2000/svg"
   xmlns:svg="http://www.w3.org/2000/svg">
  <defs
     id="defs3" />
  <g
     id="g7040"
     transform="matrix(0.02272011,0,0,0.02272011,-2.0762078,-3.4830104)">
    <path
       style="fill:none;fill-opacity:1;stroke:#ff8ab6;stroke-width:3.60798;stroke-linecap:round;stroke-linejoin:round;stroke-dasharray:none;stroke-opacity:1"
       d="m 105.15807,175.60045 h 5.18879"
       id="path7028" />
    <path
       style="display:inline;fill:none;fill-opacity:0;stroke:#ff8ab6;stroke-width:3.175;stroke-linecap:round;stroke-linejoin:round;stroke-dasharray:none;stroke-opacity:1"
       d="m 134.25017,166.93341 c 0,0 -1.1816,-1.70236 -3.95274,-1.75466 -3.27441,-0.0618 -4.88593,2.51297 -7.72963,5.48112 -3.57225,-2.74674 -4.21331,-3.90714 -7.36938,-3.91114 -3.67463,-0.004 -5.14047,3.33362 -5.15237,5.23405 -0.0124,1.98316 0.75549,4.37141 2.52369,5.73531 3.64052,2.80809 7.28104,5.61619 10.92156,8.42429 l 2.632,-2.2626"
       id="path7030" />
    <path
       style="fill:none;fill-opacity:1;stroke:#ff8ab6;stroke-width:2.64583;stroke-linecap:round;stroke-linejoin:round;stroke-dasharray:none;stroke-opacity:1"
       d="m 121.53361,176.98317 h 13.24397"
       id="path7034" />
    <path
       style="fill:none;fill-opacity:1;stroke:#ff8ab6;stroke-width:2.64583;stroke-linecap:round;stroke-linejoin:round;stroke-dasharray:none;stroke-opacity:1"
       d="m 127.55938,170.65987 h 7.2182"
       id="path7036" />
    <path
       style="fill:none;fill-opacity:1;stroke:#ff8ab6;stroke-width:2.64583;stroke-linecap:round;stroke-linejoin:round;stroke-dasharray:none;stroke-opacity:1"
       d="m 130.06542,183.11057 h 4.71216"
       id="path7038" />
  </g>
  <g
     id="layer1"
     transform="matrix(0.03465192,0,0,0.03465192,0.06669633,0.08474368)">
    <path
       d="m -0.67922122,2.2504734 h 1.245523 c 1.37580472,0 2.49104592,1.1152788 2.49104592,2.491046 V 19.687794 c 0,1.375805 -1.1152412,2.491047 -2.49104592,2.491047 h -1.245523"
       stroke="#323232"
       stroke-width="2.49106"
       stroke-linecap="round"
       stroke-linejoin="round"
       id="path1"
       style="stroke:#ff8ab6;stroke-opacity:1" />
    <path
       d="M 6.7939168,2.2504734 H 5.5483939 c -1.3758048,0 -2.4910462,1.1152788 -2.4910462,2.491046 V 19.687794 c 0,1.375805 1.1152414,2.491047 2.4910462,2.491047 h 1.2455229"
       stroke="#323232"
       stroke-width="2.49106"
       stroke-linecap="round"
       stroke-linejoin="round"
       id="path2"
       style="stroke:#ff8ab6;stroke-opacity:1" />
    <path
       d="M 0.56630178,12.214657 H 5.5483939"
       stroke="#323232"
       stroke-width="2.49106"
       stroke-linecap="round"
       stroke-linejoin="round"
       id="path3"
       style="stroke:#ff8ab6;stroke-opacity:1" />
  </g>
</svg>
