<?xml version="1.0" encoding="UTF-8" standalone="no"?>
<!-- Created with Inkscape (http://www.inkscape.org/) -->

<svg
   width="67.733337mm"
   height="67.73333mm"
   viewBox="0 0 67.733337 67.73333"
   version="1.1"
   id="svg5"
   xml:space="preserve"
   inkscape:version="1.2.2 (732a01da63, 2022-12-09)"
   sodipodi:docname="neuropilot.svg"
   inkscape:export-filename="neuropilot.svg"
   inkscape:export-xdpi="48"
   inkscape:export-ydpi="48"
   xmlns:inkscape="http://www.inkscape.org/namespaces/inkscape"
   xmlns:sodipodi="http://sodipodi.sourceforge.net/DTD/sodipodi-0.dtd"
   xmlns="http://www.w3.org/2000/svg"
   xmlns:svg="http://www.w3.org/2000/svg"><sodipodi:namedview
     id="namedview7"
     pagecolor="#373737"
     bordercolor="#000000"
     borderopacity="0.25"
     inkscape:showpageshadow="2"
     inkscape:pageopacity="0"
     inkscape:pagecheckerboard="0"
     inkscape:deskcolor="#d1d1d1"
     inkscape:document-units="mm"
     showgrid="false"
     inkscape:zoom="1.6076165"
     inkscape:cx="406.81345"
     inkscape:cy="652.2078"
     inkscape:window-width="1920"
     inkscape:window-height="991"
     inkscape:window-x="-9"
     inkscape:window-y="-9"
     inkscape:window-maximized="1"
     inkscape:current-layer="layer2" /><defs
     id="defs2"><inkscape:path-effect
       effect="mirror_symmetry"
       start_point="105.00001,140.11455"
       end_point="105.00001,146.92351"
       center_point="105.00001,143.51903"
       id="path-effect12788"
       is_visible="true"
       lpeversion="1.2"
       lpesatellites=""
       mode="free"
       discard_orig_path="false"
       fuse_paths="false"
       oposite_fuse="false"
       split_items="false"
       split_open="false"
       link_styles="false" /><inkscape:path-effect
       effect="mirror_symmetry"
       start_point="105,0"
       end_point="105,297"
       center_point="105,148.5"
       id="path-effect12693"
       is_visible="true"
       lpeversion="1.2"
       lpesatellites=""
       mode="vertical"
       discard_orig_path="false"
       fuse_paths="false"
       oposite_fuse="false"
       split_items="false"
       split_open="false"
       link_styles="false" /><inkscape:path-effect
       effect="mirror_symmetry"
       start_point="105,0"
       end_point="105,297"
       center_point="105,148.5"
       id="path-effect1186"
       is_visible="true"
       lpeversion="1.2"
       lpesatellites=""
       mode="vertical"
       discard_orig_path="false"
       fuse_paths="false"
       oposite_fuse="false"
       split_items="false"
       split_open="false"
       link_styles="false" /><inkscape:path-effect
       effect="mirror_symmetry"
       start_point="105,0"
       end_point="105,297"
       center_point="105,148.5"
       id="path-effect460"
       is_visible="true"
       lpeversion="1.2"
       lpesatellites=""
       mode="vertical"
       discard_orig_path="false"
       fuse_paths="false"
       oposite_fuse="false"
       split_items="false"
       split_open="false"
       link_styles="false" /><inkscape:path-effect
       effect="powerstroke"
       id="path-effect5029"
       is_visible="true"
       lpeversion="1"
       offset_points="0.40598048,0.69342511 | 1.6870878,0.88872373 | 0.741452,1.1753925 | 2.1914267,0.57191477"
       not_jump="false"
       sort_points="true"
       interpolator_type="CentripetalCatmullRom"
       interpolator_beta="0.19650655"
       start_linecap_type="zerowidth"
       linejoin_type="round"
       miter_limit="4"
       scale_width="1"
       end_linecap_type="zerowidth" /><inkscape:path-effect
       effect="mirror_symmetry"
       start_point="105,-41.253954"
       end_point="105,340.47527"
       center_point="105,149.61066"
       id="path-effect1877"
       is_visible="true"
       lpeversion="1.2"
       lpesatellites=""
       mode="vertical"
       discard_orig_path="false"
       fuse_paths="false"
       oposite_fuse="true"
       split_items="false"
       split_open="false"
       link_styles="false" /><inkscape:path-effect
       effect="mirror_symmetry"
       start_point="105,146.05119"
       end_point="105,150.94882"
       center_point="105,148.5"
       id="path-effect1873"
       is_visible="true"
       lpeversion="1.2"
       lpesatellites=""
       mode="free"
       discard_orig_path="false"
       fuse_paths="false"
       oposite_fuse="false"
       split_items="false"
       split_open="false"
       link_styles="false" /><inkscape:path-effect
       effect="mirror_symmetry"
       start_point="105,140.31719"
       end_point="105,156.68281"
       center_point="105,148.5"
       id="path-effect1815"
       is_visible="true"
       lpeversion="1.2"
       lpesatellites=""
       mode="free"
       discard_orig_path="false"
       fuse_paths="false"
       oposite_fuse="false"
       split_items="false"
       split_open="false"
       link_styles="false" /></defs><g
     inkscape:groupmode="layer"
     id="layer2"
     inkscape:label="Layer 2"
     style="display:inline"
     transform="translate(-71.133333,-114.63334)"><path
       style="display:inline;fill:#fffdfd;fill-opacity:1;stroke:none;stroke-width:3.175;stroke-linecap:round;stroke-linejoin:round"
       id="path361"
       sodipodi:type="arc"
       sodipodi:cx="105"
       sodipodi:cy="148.5"
       sodipodi:rx="33.866665"
       sodipodi:ry="33.866665"
       sodipodi:start="0"
       sodipodi:end="6.2785"
       sodipodi:arc-type="arc"
       d="m 138.86666,148.5 a 33.866665,33.866665 0 0 1 -33.82699,33.86664 33.866665,33.866665 0 0 1 -33.906242,-33.7873 33.866665,33.866665 0 0 1 33.747562,-33.9458 33.866665,33.866665 0 0 1 33.9853,33.70778"
       inkscape:label="Circle"
       sodipodi:open="true" /><path
       style="display:inline;opacity:1;fill:#2f242e;fill-opacity:1;stroke:#2f242e;stroke-width:3.175;stroke-linecap:round;stroke-linejoin:round;stroke-dasharray:none;stroke-opacity:1"
       d="m 96.277601,137.51644 -9.323371,13.18029 -3e-6,4.37901 c 3.601474,-2.76693 10.544474,-5.39449 13.967963,-14.43769 -0.55137,6.65862 2.30346,12.53023 5.51204,15.46599 -1.43423,-5.30019 -0.22222,-11.65793 0.59548,-15.96629 1.95629,10.38002 9.82235,13.05674 16.01606,14.26845 l 3e-5,-4.29505 -12.72396,-12.86799"
       id="path1933"
       sodipodi:nodetypes="ccccccccc"
       inkscape:label="Hair" /><path
       style="opacity:1;fill:none;fill-opacity:1;stroke:#2f242e;stroke-width:3.175;stroke-linecap:round;stroke-linejoin:round;stroke-opacity:1"
       d="m 109.90299,153.65523 v 4.89763 m -9.80598,-4.89763 v 4.89763"
       id="path1871"
       sodipodi:nodetypes="cc"
       inkscape:path-effect="#path-effect1873"
       inkscape:original-d="m 109.90299,153.65523 v 4.89763"
       class="UnoptimicedTransforms"
       inkscape:label="Eyes" /><path
       style="display:inline;opacity:1;fill:#2f242e;fill-opacity:1;stroke:none;stroke-width:0.275;stroke-linecap:round;stroke-linejoin:round;stroke-dasharray:none;stroke-opacity:1"
       d="m 105,127.33859 c 9.78403,0.1215 17.11229,10.61659 18.0458,20.16914 -2.61814,-1.61955 -6.28555,-5.20255 -8.50367,-5.42306 -2.21812,-0.22051 -4.31743,-1.92791 -5.64477,-1.38533 C 107.57002,141.24192 105,139.86031 105,139.86031 m 0,-12.52172 c -9.784027,0.1215 -17.112287,10.61659 -18.045797,20.16914 2.61814,-1.61955 6.28555,-5.20255 8.50367,-5.42306 2.21812,-0.22051 4.31743,-1.92791 5.644767,-1.38533 1.32734,0.54258 3.89736,-0.83903 3.89736,-0.83903"
       id="path1875"
       inkscape:path-effect="#path-effect1877"
       inkscape:original-d="m 105,127.33859 c 9.78403,0.1215 17.11229,10.61659 18.0458,20.16914 -2.61814,-1.61955 -6.28555,-5.20255 -8.50367,-5.42306 -2.21812,-0.22051 -4.31743,-1.92791 -5.64477,-1.38533 C 107.57002,141.24192 105,139.86031 105,139.86031"
       class="UnoptimicedTransforms"
       sodipodi:nodetypes="cczzc"
       inkscape:label="Top"
       transform="matrix(1,0,0,0.77803841,0,32.097161)" /><path
       style="display:inline;opacity:1;fill:#2f242e;fill-opacity:1;fill-rule:nonzero;stroke:none;stroke-width:3.175;stroke-linecap:round;stroke-linejoin:round;stroke-dasharray:none;stroke-opacity:1"
       d="m 105,131.17148 c -0.0763,-0.0534 -0.7364,-0.50798 -1.0654,-0.76641 -0.23909,-0.1878 -0.42294,-0.35326 -0.57623,-0.51267 -0.10693,-0.1112 -0.18592,-0.22141 -0.24603,-0.32508 -0.0821,-0.14167 -0.13378,-0.27966 -0.16564,-0.39521 -0.026,-0.0943 -0.0375,-0.16735 -0.0478,-0.23759 -6.4e-4,-0.004 -0.001,-0.009 -0.002,-0.0129 -0.008,-0.0553 -0.0183,-0.10299 -0.0289,-0.18077 -0.009,-0.063 -0.0183,-0.16315 -0.004,-0.30823 0.008,-0.15499 0.0395,-0.33946 0.13346,-0.55907 0.0952,-0.22261 0.24336,-0.45341 0.44303,-0.68031 0.16866,-0.19166 0.35844,-0.3626 0.54876,-0.50658 0.3879,-0.29345 0.82146,-0.54653 1.21625,-0.73328 0.24602,-0.11735 0.53464,-0.23123 0.86856,-0.32659 0.42673,-0.12186 0.94332,-0.22571 1.51958,-0.267 0.42579,-0.0305 0.82248,-0.0221 1.17157,0.016 0.48632,0.0532 0.80343,0.1553 0.98515,0.22871 -0.14005,-0.13515 -0.40851,-0.357 -0.88866,-0.57406 -0.34465,-0.1558 -0.75448,-0.28897 -1.21582,-0.38445 -0.61978,-0.12828 -1.22172,-0.16607 -1.73571,-0.15128 -0.40401,0.0116 -0.77859,0.0512 -1.11638,0.1125 -0.5295,0.095 -1.11835,0.25984 -1.71502,0.55285 -0.2862,0.14055 -0.60359,0.31711 -0.91878,0.54119 -0.36903,0.26237 -0.73171,0.58775 -1.03026,0.98724 -0.30054,0.40216 -0.51948,0.85818 -0.61969,1.35336 -0.0714,0.37143 -0.0793,0.72029 -0.0322,1.04317 0.0547,0.37521 0.1797,0.68806 0.32961,0.93362 0.0115,0.0189 0.0232,0.0373 0.0349,0.0554 0.18147,0.27817 0.39544,0.47023 0.58965,0.60172 0.25073,0.16975 0.51065,0.26768 0.75344,0.33588 0.17842,0.0501 0.36862,0.0898 0.56357,0.12679 0.2751,0.0523 0.57808,0.0808 0.9022,0.0891 0.57296,0.0146 1.14578,-0.0394 1.34842,-0.056 z"
       id="path5010"
       sodipodi:nodetypes="cssc"
       inkscape:path-effect="#path-effect5029"
       inkscape:original-d="m 105,131.17148 c -1.52475,-0.41301 -3.64017,-0.96095 -3.31263,-2.93427 0.22271,-1.34178 1.64167,-2.44588 3.31263,-2.95694 1.67095,-0.51107 3.73244,-0.33675 4.75071,0.32423"
       inkscape:label="Neuro-Ahoge" /><path
       style="fill:none;stroke:#2f242e;stroke-width:3.175;stroke-linecap:round;stroke-linejoin:round"
       d="m 118.91135,146.19433 4.13442,0.66951 v 15.08472 c -3.63014,2.10202 -10.16946,5.00769 -18.04577,5.00769 m -13.911347,-20.76192 -4.13442,0.66951 v 15.08472 c 3.63014,2.10202 10.16946,5.00769 18.045767,5.00769"
       id="path458"
       sodipodi:nodetypes="cccc"
       inkscape:path-effect="#path-effect460"
       inkscape:original-d="m 118.91135,146.19433 4.13442,0.66951 v 15.08472 c -3.63014,2.10202 -10.16946,5.00769 -18.04577,5.00769"
       class="UnoptimicedTransforms"
       inkscape:label="Face" /><path
       style="display:inline;fill:#2f242e;fill-opacity:1;stroke:#2f242e;stroke-width:3.175;stroke-linecap:round;stroke-linejoin:round;stroke-opacity:1"
       d="m 123.04577,161.94856 c 1.91012,-1.27676 3.32461,-2.57205 4.98897,-4.25735 l -0.0178,-5.89772 c -0.95114,-2.49031 -2.76885,-3.94072 -4.97114,-4.92965 m -36.091567,15.08472 c -1.91012,-1.27676 -3.32461,-2.57205 -4.98897,-4.25735 l 0.0178,-5.89772 c 0.95114,-2.49031 2.76885,-3.94072 4.97114,-4.92965"
       id="path1184"
       inkscape:path-effect="#path-effect1186"
       inkscape:original-d="m 123.04577,161.94856 c 1.91012,-1.27676 3.32461,-2.57205 4.98897,-4.25735 l -0.0178,-5.89772 c -0.95114,-2.49031 -2.76885,-3.94072 -4.97114,-4.92965"
       class="UnoptimicedTransforms"
       sodipodi:nodetypes="cccc"
       inkscape:label="Side" /><path
       style="display:inline;opacity:1;fill:#2f242e;fill-opacity:1;stroke:#2f242e;stroke-width:3.175;stroke-linecap:round;stroke-linejoin:round;stroke-dasharray:none;stroke-opacity:1"
       d="m 116.97422,148.09402 c 0,0 0.73872,8.7853 -0.2448,13.00963 -0.97317,4.17992 -3.50721,8.17819 -3.50721,8.17819 2.10107,-0.80154 4.8598,-2.19331 6.63347,-4.9125 3.35567,-5.14454 1.31196,-15.72356 1.31196,-15.72356 m -28.141857,-0.55176 c 0,0 -0.73872,8.7853 0.2448,13.00963 0.97317,4.17992 3.50721,8.17819 3.50721,8.17819 -2.10107,-0.80154 -4.8598,-2.19331 -6.63347,-4.9125 -3.35567,-5.14454 -1.31196,-15.72356 -1.31196,-15.72356"
       id="path12690"
       sodipodi:nodetypes="cscsc"
       inkscape:path-effect="#path-effect12693"
       inkscape:original-d="m 116.97422,148.09402 c 0,0 0.73872,8.7853 -0.2448,13.00963 -0.97317,4.17992 -3.50721,8.17819 -3.50721,8.17819 2.10107,-0.80154 4.8598,-2.19331 6.63347,-4.9125 3.35567,-5.14454 1.31196,-15.72356 1.31196,-15.72356"
       class="UnoptimicedTransforms"
       inkscape:label="Bangs" /><path
       style="display:inline;fill:#ffffff;fill-opacity:1;stroke:#2f242e;stroke-width:3.175;stroke-linecap:round;stroke-linejoin:round;stroke-opacity:1"
       d="m 106.73157,133.35449 c 1.58834,-1.46296 4.24927,-1.22949 6.39809,-1.01587 2.28742,0.2274 4.87881,0.73697 6.46456,2.40111 1.40367,1.47307 1.77579,3.7846 1.84701,5.8181 0.0687,1.96244 -0.0954,4.24516 -1.38526,5.72575 -1.32552,1.5215 -3.61762,2.12364 -5.6334,2.21641 -2.31371,0.10648 -4.37538,0.20948 -6.67234,-1.93935 -1.56037,-1.45975 -2.36994,-3.73876 -2.58861,-5.86428 -0.25611,-2.48948 -0.50007,-5.43525 1.56995,-7.34187 z m -3.46314,0 c -1.58834,-1.46296 -4.24927,-1.22949 -6.39809,-1.01587 -2.28742,0.2274 -4.87881,0.73697 -6.46456,2.40111 -1.40367,1.47307 -1.77579,3.7846 -1.84701,5.8181 -0.0687,1.96244 0.0954,4.24516 1.38526,5.72575 1.32552,1.5215 3.61762,2.12364 5.6334,2.21641 2.31371,0.10648 4.37538,0.20948 6.67234,-1.93935 1.56037,-1.45975 2.36994,-3.73876 2.58861,-5.86428 0.25611,-2.48948 0.50007,-5.43525 -1.56995,-7.34187 z"
       id="path1486"
       sodipodi:nodetypes="saaaaasas"
       inkscape:label="Aviators"
       inkscape:original-d="m 106.73157,133.35449 c 1.58834,-1.46296 4.24927,-1.22949 6.39809,-1.01587 2.28742,0.2274 4.87881,0.73697 6.46456,2.40111 1.40367,1.47307 1.77579,3.7846 1.84701,5.8181 0.0687,1.96244 -0.0954,4.24516 -1.38526,5.72575 -1.32552,1.5215 -3.61762,2.12364 -5.6334,2.21641 -2.31371,0.10648 -4.37538,0.20948 -6.67234,-1.93935 -1.56037,-1.45975 -2.36994,-3.73876 -2.58861,-5.86428 -0.25611,-2.48948 -0.50007,-5.43525 1.56995,-7.34187 z"
       inkscape:path-effect="#path-effect1815"
       class="UnoptimicedTransforms"
       transform="matrix(0.88221985,0,0,0.88221985,12.366916,17.088643)" /><path
       style="display:inline;opacity:1;fill:none;fill-opacity:1;stroke:#ffffff;stroke-width:1.58734;stroke-linecap:round;stroke-linejoin:round;stroke-dasharray:none;stroke-opacity:1"
       d="m 105,141.91568 c 0.49358,-0.63816 1.13775,-1.02824 1.88782,-1.02824 0.75006,0 1.75875,0.56728 1.85405,1.63912 0.18064,2.03176 -3.74186,4.66045 -3.74186,4.66045 m 1e-5,-5.27133 c -0.49358,-0.63816 -1.13775,-1.02824 -1.88782,-1.02824 -0.75006,0 -1.75875,0.56728 -1.85405,1.63912 -0.18064,2.03176 3.74186,4.66045 3.74186,4.66045"
       id="path12784"
       sodipodi:nodetypes="czsc"
       inkscape:path-effect="#path-effect12788"
       inkscape:original-d="m 105,141.91568 c 0.49358,-0.63816 1.13775,-1.02824 1.88782,-1.02824 0.75006,0 1.75875,0.56728 1.85405,1.63912 0.18064,2.03176 -3.74186,4.66045 -3.74186,4.66045"
       class="UnoptimicedTransforms"
       transform="matrix(0.89103438,-0.33672629,0.33672629,0.89103438,-23.834233,57.309548)"
       inkscape:label="Heart 2" /></g></svg>
